<?xml version="1.0" encoding="UTF-8"?>
<svg xmlns="http://www.w3.org/2000/svg" xmlns:xlink="http://www.w3.org/1999/xlink" width="24px" height="24px" viewBox="0 0 24 24" version="1.1">
<g id="surface1">
<path style="fill-rule:nonzero;fill:rgb(100%,100%,100%);fill-opacity:1;stroke-width:1;stroke-linecap:butt;stroke-linejoin:miter;stroke:rgb(100%,100%,100%);stroke-opacity:1;stroke-miterlimit:4;" d="M 362.416667 177.583333 C 399 144.833333 419.833333 98 419.833333 48.916667 L 419.833333 24.916667 C 419.833333 14.916667 411.75 6.75 401.75 6.75 L 110.25 6.75 C 100.25 6.75 92.166667 14.916667 92.166667 24.916667 L 92.166667 48.916667 C 92.166667 98 113 144.833333 149.583333 177.583333 L 173.666667 199.083333 C 189.833333 213.666667 199.083333 234.333333 199.166667 256.083333 C 199.25 277.916667 190.083333 298.666667 173.916667 313.25 L 148.833333 336 C 112.75 368.75 92.166667 415.25 92.166667 464 L 92.166667 487.083333 C 92.166667 497.083333 100.25 505.25 110.25 505.25 L 401.75 505.25 C 411.75 505.25 419.833333 497.083333 419.833333 487.083333 L 419.833333 464 C 419.833333 415.25 399.25 368.75 363.166667 336 L 338.083333 313.25 C 321.916667 298.666667 312.75 277.916667 312.833333 256.083333 C 312.916667 234.333333 322.166667 213.666667 338.333333 199.083333 Z M 321.333333 345.833333 C 352.333333 363.416667 371.583333 396.333333 371.583333 432 L 371.583333 451.583333 C 371.583333 458.666667 365.833333 464.416667 358.666667 464.416667 L 153.333333 464.416667 C 146.166667 464.416667 140.416667 458.666667 140.416667 451.583333 L 140.416667 432 C 140.416667 396.333333 159.666667 363.416667 190.666667 345.833333 L 245 315.083333 C 251.833333 311.25 260.166667 311.25 267 315.083333 Z M 321.333333 345.833333 " transform="matrix(0.046875,0,0,0.046875,0,0)"/>
</g>
</svg>
